<?xml version="1.0" standalone="no"?>
<!DOCTYPE svg PUBLIC "-//W3C//DTD SVG 20010904//EN"
 "http://www.w3.org/TR/2001/REC-SVG-20010904/DTD/svg10.dtd">
<svg version="1.0" xmlns="http://www.w3.org/2000/svg"
 width="1024.000000pt" height="1024.000000pt" viewBox="0 0 1024.000000 1024.000000"
 preserveAspectRatio="xMidYMid meet">
<metadata>
Created by potrace 1.14, written by Peter Selinger 2001-2017
</metadata>
<g transform="translate(0.000000,1024.000000) scale(0.100000,-0.100000)"
fill="#000000" stroke="none">
<path d="M5040 9731 c-14 -4 -84 -37 -155 -72 -72 -35 -136 -63 -142 -63 -7 1
-11 -2 -8 -6 2 -4 -24 -20 -58 -35 -34 -16 -65 -33 -68 -38 -3 -5 -9 -8 -13
-8 -7 1 -102 -46 -272 -134 -57 -30 -104 -51 -104 -47 0 4 -4 2 -8 -4 -4 -6
-95 -55 -202 -109 -212 -106 -222 -111 -247 -124 -10 -5 -139 -71 -288 -146
-148 -76 -276 -142 -282 -147 -7 -6 -13 -7 -13 -4 0 4 -13 -2 -30 -14 -16 -12
-30 -18 -30 -15 0 3 -12 -2 -27 -12 -16 -11 -165 -88 -333 -172 -168 -84 -311
-158 -317 -163 -7 -6 -20 -8 -28 -4 -9 3 -14 2 -11 -3 6 -10 -389 -212 -398
-204 -3 4 -6 2 -6 -4 0 -9 -89 -58 -118 -65 -4 -1 -27 -13 -52 -27 -25 -15
-139 -73 -255 -131 -115 -58 -211 -108 -213 -112 -2 -5 -12 -8 -23 -8 -10 0
-19 -5 -19 -12 0 -6 -3 -9 -6 -5 -10 10 -78 -70 -105 -124 -21 -42 -25 -64
-23 -113 3 -80 6 -96 16 -96 4 0 8 -4 8 -10 0 -31 141 -222 262 -355 29 -32
52 -62 50 -67 -1 -5 1 -7 6 -4 11 7 62 -49 62 -66 0 -7 -9 -24 -20 -38 -11
-14 -20 -29 -20 -33 0 -5 -20 -50 -44 -100 -76 -159 -117 -261 -178 -444 -12
-35 -25 -63 -30 -63 -5 0 -7 -4 -4 -9 3 -4 -10 -62 -28 -127 -29 -103 -56
-216 -72 -304 -2 -14 -10 -50 -16 -80 -11 -56 -13 -68 -24 -175 -4 -33 -9 -62
-13 -65 -3 -3 -7 -30 -7 -60 -3 -134 -8 -196 -18 -209 -9 -12 -8 -13 4 -6 12
7 13 6 3 -7 -7 -8 -11 -17 -9 -19 3 -3 7 -112 10 -244 3 -132 7 -251 10 -265
2 -14 7 -54 10 -90 4 -36 11 -91 17 -124 6 -32 8 -60 5 -63 -3 -3 -1 -14 4
-24 6 -9 12 -35 14 -56 4 -40 39 -203 57 -263 6 -19 12 -42 13 -50 6 -32 19
-78 43 -148 14 -40 22 -80 19 -88 -3 -8 -2 -13 2 -10 5 3 14 -12 21 -32 14
-42 88 -236 101 -267 34 -79 175 -361 182 -363 4 -2 8 -12 8 -22 0 -10 3 -20
8 -22 11 -5 115 -180 115 -195 0 -7 3 -10 7 -8 4 2 31 -33 61 -78 29 -45 59
-89 66 -97 7 -8 47 -59 89 -113 42 -54 86 -109 98 -122 11 -12 50 -55 86 -95
75 -83 235 -243 280 -280 17 -14 37 -31 43 -38 22 -23 192 -159 282 -225 50
-37 95 -71 102 -77 7 -5 15 -10 19 -10 3 0 20 -10 37 -23 17 -12 69 -45 114
-73 46 -28 80 -54 76 -59 -5 -4 -2 -5 5 -1 7 4 18 3 25 -2 7 -5 62 -35 122
-66 61 -31 115 -60 120 -64 6 -5 14 -9 18 -9 21 -2 67 -26 67 -35 0 -5 4 -7 8
-4 5 3 26 -3 48 -14 21 -10 71 -30 109 -45 39 -14 86 -32 105 -40 79 -30 126
-47 140 -51 57 -13 100 -31 93 -39 -4 -4 -2 -5 4 -1 7 4 32 2 55 -5 24 -6 44
-11 45 -11 2 1 17 -4 35 -9 44 -14 102 -27 228 -53 14 -3 36 -8 50 -11 14 -3
43 -8 65 -10 22 -3 51 -7 65 -10 14 -3 45 -8 70 -11 25 -3 56 -7 70 -10 148
-25 769 -25 920 1 14 2 48 7 75 10 50 6 200 31 243 40 42 10 67 15 122 26 30
6 75 17 99 25 24 8 50 13 58 10 7 -3 13 -2 13 2 0 7 101 38 108 33 1 -1 15 5
31 13 15 8 39 17 52 20 33 6 163 53 227 82 29 13 55 24 58 24 24 0 368 173
491 247 57 34 103 59 103 55 0 -4 4 -2 8 4 4 6 45 37 92 69 99 68 196 139 247
182 12 10 32 26 45 35 13 10 41 33 62 53 21 19 42 32 47 29 5 -3 8 -2 7 3 -2
6 180 191 211 213 13 10 197 216 236 265 22 28 42 52 45 55 16 15 142 190 204
285 97 147 181 295 252 442 32 67 62 119 68 116 5 -3 6 -1 2 6 -4 6 13 60 37
119 25 59 51 125 58 147 8 22 18 43 22 46 5 3 8 9 7 13 -4 15 12 66 21 66 6 0
8 4 5 9 -3 5 -2 22 4 37 5 16 14 48 20 72 7 27 15 40 22 36 7 -4 8 -3 4 5 -4
6 8 80 28 164 19 83 40 181 46 217 5 36 12 76 14 90 3 14 5 25 6 25 1 0 3 20
6 45 2 25 6 59 8 75 3 17 8 73 12 125 3 52 11 101 18 109 8 11 8 13 -1 8 -11
-7 -12 12 -2 70 1 4 1 13 0 18 -2 14 -3 270 0 281 1 5 1 11 0 14 -10 26 -9 70
2 70 8 0 9 3 1 8 -6 4 -14 45 -18 92 -3 47 -8 99 -10 115 -2 17 -7 57 -10 90
-4 33 -9 67 -11 75 -2 8 -6 33 -9 55 -4 22 -11 63 -16 90 -6 28 -12 60 -15 73
-2 13 -7 33 -11 44 -3 11 -7 30 -9 41 -14 89 -113 413 -160 522 -7 17 -25 62
-40 100 -15 39 -53 122 -83 185 -30 63 -55 118 -54 123 1 4 -2 7 -7 7 -5 0
-12 7 -15 16 -4 10 10 32 38 62 116 123 128 138 186 212 19 25 38 47 41 50 12
11 79 121 101 167 35 74 34 165 -1 239 -42 87 -87 123 -263 212 -87 43 -154
83 -150 87 4 5 2 5 -4 2 -6 -4 -40 8 -75 27 -35 18 -226 115 -423 215 -197 99
-365 186 -372 192 -8 6 -14 8 -14 4 0 -4 -6 -3 -12 3 -7 5 -105 56 -218 113
-113 57 -208 107 -211 112 -3 5 -9 8 -13 7 -4 -1 -107 49 -229 111 -122 62
-313 158 -425 215 -112 57 -210 108 -218 115 -8 6 -14 8 -14 5 0 -4 -13 2 -30
14 -16 12 -30 18 -30 14 0 -4 -9 1 -21 12 -12 10 -23 18 -25 16 -2 -1 -30 11
-62 27 -31 16 -140 71 -242 123 -102 51 -187 95 -190 99 -3 3 -18 11 -35 17
-88 37 -355 179 -348 187 4 4 3 5 -4 1 -6 -3 -53 15 -103 40 -77 39 -103 47
-158 50 -37 2 -78 0 -92 -5z m385 -1404 c17 -3 57 -8 90 -12 92 -11 250 -37
310 -52 11 -3 32 -7 48 -10 15 -3 27 -8 27 -12 0 -3 17 -7 37 -8 21 -1 39 -7
41 -13 2 -5 8 -8 12 -5 10 6 179 -48 320 -102 104 -41 385 -178 440 -215 19
-13 54 -35 78 -48 23 -13 42 -27 42 -32 0 -4 5 -8 11 -8 12 0 97 -56 119 -79
8 -9 26 -22 39 -30 53 -29 151 -113 144 -123 -3 -6 -1 -8 4 -5 6 4 32 -12 59
-36 96 -85 179 -169 176 -178 -1 -5 1 -8 6 -7 17 6 181 -183 305 -351 119
-161 297 -478 357 -636 13 -33 29 -74 36 -91 17 -40 82 -234 87 -260 2 -10 7
-26 10 -34 7 -17 44 -170 52 -215 28 -150 36 -206 39 -270 3 -41 8 -80 12 -87
8 -13 14 -445 6 -520 -3 -33 -8 -46 -16 -41 -7 5 -7 2 1 -8 7 -9 10 -26 8 -40
-3 -13 -7 -44 -11 -69 -19 -159 -19 -159 -54 -315 -43 -188 -101 -379 -149
-490 -5 -11 -19 -45 -31 -75 -27 -67 -140 -293 -149 -300 -4 -3 -13 -20 -20
-37 -8 -18 -17 -33 -22 -33 -5 0 -9 -5 -9 -11 0 -13 -111 -182 -122 -187 -5
-2 -8 -8 -8 -13 0 -18 -43 -68 -53 -62 -6 3 -7 1 -4 -5 6 -8 -45 -83 -88 -128
-5 -6 -30 -36 -55 -65 -40 -48 -244 -254 -310 -313 -44 -40 -189 -155 -218
-173 -15 -10 -29 -20 -32 -23 -9 -10 -158 -110 -164 -110 -3 0 -24 -12 -48
-27 -70 -45 -81 -52 -131 -78 -26 -14 -53 -23 -59 -19 -7 4 -8 3 -4 -4 4 -7
-2 -16 -16 -21 -13 -5 -61 -27 -108 -49 -116 -54 -245 -104 -367 -142 -57 -17
-105 -31 -108 -31 -2 0 -35 -9 -72 -19 -64 -17 -214 -49 -258 -55 -11 -1 -39
-6 -63 -9 -141 -23 -257 -30 -467 -31 -217 0 -318 6 -465 29 -200 31 -240 39
-240 48 0 5 -4 7 -9 4 -5 -3 -42 3 -82 14 -41 11 -85 22 -99 25 -42 9 -292 96
-350 122 -131 58 -314 148 -340 167 -17 12 -45 28 -99 57 -21 10 -47 28 -59
39 -12 11 -25 20 -29 20 -4 0 -32 18 -61 40 -29 22 -55 40 -58 40 -7 0 -188
146 -249 200 -98 87 -281 278 -350 365 -22 28 -42 52 -45 55 -35 35 -225 312
-259 378 -7 12 -9 28 -5 34 4 7 3 8 -4 4 -8 -5 -36 43 -83 141 -39 81 -78 160
-85 174 -7 14 -11 29 -7 33 3 3 1 6 -5 6 -7 0 -12 6 -12 14 0 8 -9 34 -19 59
-11 25 -21 55 -23 68 -2 13 -6 26 -9 29 -14 11 -88 273 -113 400 -3 14 -7 36
-10 50 -3 13 -8 42 -11 65 -3 22 -8 52 -11 67 -3 15 -7 49 -10 75 -2 26 -7 80
-11 118 -15 143 -7 601 12 675 2 8 6 38 10 65 21 178 126 592 147 579 4 -3 5
1 2 9 -3 8 5 38 17 68 11 30 28 72 36 94 61 168 273 546 387 690 126 160 186
230 195 227 7 -1 10 1 8 6 -9 13 60 85 74 77 8 -5 10 -4 5 4 -13 20 301 311
334 311 8 0 11 3 7 6 -3 3 15 21 41 40 113 82 222 154 232 154 5 0 10 3 10 8
0 4 21 18 48 32 26 13 49 27 52 30 3 3 32 19 65 35 33 17 62 32 65 35 10 10
187 90 285 128 151 59 264 95 281 88 8 -3 13 -2 10 3 -5 8 169 58 186 53 4 -1
18 2 30 7 13 5 43 11 68 15 25 3 56 8 70 11 43 9 93 16 150 21 30 2 87 8 125
12 69 8 502 7 560 -1z"/>
<path d="M3891 7513 c-29 -7 -58 -10 -63 -6 -6 3 -8 2 -5 -3 3 -6 -15 -21 -41
-34 -139 -74 -215 -234 -177 -375 7 -26 41 -91 75 -145 25 -40 70 -124 70
-132 0 -4 5 -8 10 -8 6 0 10 -4 10 -10 0 -5 13 -31 29 -58 15 -26 39 -68 53
-93 14 -24 71 -124 127 -221 58 -100 99 -183 95 -189 -4 -7 -3 -9 3 -6 6 4 23
-17 39 -46 16 -29 34 -61 41 -72 7 -11 18 -31 25 -45 7 -14 15 -27 19 -30 3
-3 12 -18 21 -35 8 -16 34 -63 57 -103 23 -40 39 -77 36 -83 -4 -5 -2 -8 5 -7
10 3 93 -134 107 -174 3 -10 9 -18 13 -18 4 0 13 -15 20 -32 8 -18 19 -40 25
-48 7 -8 23 -35 36 -60 13 -25 28 -52 35 -60 6 -8 27 -44 46 -80 20 -36 65
-116 102 -178 36 -63 63 -118 60 -124 -4 -6 -3 -8 2 -5 6 3 30 -31 55 -76 64
-117 129 -176 213 -191 52 -10 2635 -13 2629 -3 -2 4 3 8 11 8 9 1 20 2 25 3
25 3 128 81 146 109 47 78 54 114 51 246 -1 69 -5 133 -7 141 -12 37 -50 97
-76 121 -37 34 -93 72 -93 63 0 -3 -6 -2 -12 3 -7 6 -28 13 -47 17 -18 3 -552
6 -1185 6 l-1153 1 -22 39 c-12 22 -19 45 -15 52 4 7 3 8 -4 4 -14 -8 -36 30
-26 46 4 6 3 8 -3 5 -5 -3 -21 13 -34 36 -13 23 -32 56 -41 72 -10 17 -26 47
-35 68 -10 20 -21 37 -25 37 -5 0 -8 4 -8 9 0 5 -19 40 -42 77 -23 38 -41 75
-41 82 0 6 -4 12 -9 12 -4 0 -8 7 -8 15 0 8 -4 15 -8 15 -5 0 -14 16 -22 35
-8 19 -17 35 -21 35 -3 0 -12 15 -20 33 -7 17 -15 34 -18 37 -4 3 -13 19 -21
35 -8 17 -23 39 -32 49 -10 10 -15 22 -13 27 3 4 -1 13 -8 21 -26 27 -68 109
-61 120 4 6 3 8 -3 5 -5 -4 -16 6 -24 21 -7 15 -21 38 -30 52 -17 27 -68 118
-103 185 -12 22 -23 42 -26 45 -7 6 -52 82 -86 145 -12 22 -54 96 -93 165 -40
68 -73 129 -74 134 -1 6 -10 19 -19 29 -18 21 -50 82 -48 93 1 4 -2 10 -7 13
-4 3 -21 26 -37 51 -16 25 -40 55 -53 68 -68 64 -191 91 -292 65z"/>
<path d="M5510 4640 c0 -5 5 -10 11 -10 5 0 7 5 4 10 -3 6 -8 10 -11 10 -2 0
-4 -4 -4 -10z"/>
<path d="M7110 4641 c0 -6 4 -13 10 -16 6 -3 7 1 4 9 -7 18 -14 21 -14 7z"/>
<path d="M8907 7199 c7 -7 15 -10 18 -7 3 3 -2 9 -12 12 -14 6 -15 5 -6 -5z"/>
<path d="M1396 7073 c-6 -14 -5 -15 5 -6 7 7 10 15 7 18 -3 3 -9 -2 -12 -12z"/>
<path d="M3439 1393 c-13 -16 -12 -17 4 -4 16 13 21 21 13 21 -2 0 -10 -8 -17
-17z"/>
</g>
</svg>
